<?xml version="1.0" standalone="no"?><!DOCTYPE svg PUBLIC "-//W3C//DTD SVG 1.1//EN" "http://www.w3.org/Graphics/SVG/1.1/DTD/svg11.dtd"><svg t="1539630613831" class="icon" style="" viewBox="0 0 1028 1024" version="1.1" xmlns="http://www.w3.org/2000/svg" p-id="14229" xmlns:xlink="http://www.w3.org/1999/xlink" width="401.5625" height="400"><defs><style type="text/css"></style></defs><path d="M640.1750293 398.0168624h-239.97776221a29.9972206 29.9972206 0 0 1 0-59.99444032h239.97776221a29.9972206 29.9972206 0 1 1 0 59.99444032zM700.16946963 548.00296367h-359.96664288a29.9972206 29.9972206 0 0 1 1e-8-59.99444033h359.96664287a29.9972206 29.9972206 0 0 1 0 59.99444033z" fill="#ffffff" p-id="14230"></path><path d="M129.62234023 678.79084414H286.20782949l107.39004873 80.99249502h256.77620596l100.79065986-80.99249502h163.18487813l-59.99444033 223.17931846H161.41939385z" fill="#ffffff" p-id="14231"></path><path d="M844.15612695 961.96460293H184.21728066a59.99444033 59.99444033 0 0 1-59.99444033-44.39588554l-59.99444033-218.37976348a59.99444033 59.99444033 0 0 1 0-32.39699766L228.61316709 105.24399277A59.99444033 59.99444033 0 0 1 286.20782949 62.04799531h455.95774864a59.99444033 59.99444033 0 0 1 59.99444033 43.19599746L964.14500762 651.79334551a59.99444033 59.99444033 0 0 1 0 31.79705361l-59.99444033 232.7784293a59.99444033 59.99444033 0 0 1-59.99444034 45.59577451zM229.81305606 841.97572227h567.54740742l46.79566347-171.5841L697.16974766 182.03687685H331.80360489L184.21728066 683.59039912z" fill="#ffffff" p-id="14232"></path></svg>