<?xml version="1.0" standalone="no"?><!DOCTYPE svg PUBLIC "-//W3C//DTD SVG 1.1//EN" "http://www.w3.org/Graphics/SVG/1.1/DTD/svg11.dtd"><svg t="1539625282297" class="icon" style="" viewBox="0 0 1024 1024" version="1.1" xmlns="http://www.w3.org/2000/svg" p-id="1524" data-spm-anchor-id="a313x.7781069.0.i8" xmlns:xlink="http://www.w3.org/1999/xlink" width="400" height="400"><defs><style type="text/css"></style></defs><path d="M842.885223 80.406666h-82.127746v44.877008h82.127746c20.938792 0 37.973227 17.035651 37.973226 37.974443v696.943724c0 20.938792-17.034434 37.973227-37.973226 37.973227H181.112345c-20.938792 0-37.973227-17.034434-37.973227-37.973227V163.256901c0-20.938792 17.034434-37.974443 37.973227-37.974444h82.127746V80.406666H181.112345c-45.757617 0-82.850235 37.093834-82.850235 82.851451v696.943724c0 45.757617 37.093834 82.851451 82.850235 82.851451h661.772878c45.757617 0 82.850235-37.093834 82.850234-82.851451V163.256901c0-45.757617-37.092618-82.850235-82.850234-82.850235z" p-id="1525" fill="#ffffff"></path><path d="M511.998784 684.306254L354.658019 526.966706l31.693414-31.693414 125.647351 125.646135 125.64735-125.646135 31.692198 31.693414zM261.757408 754.623621h500.485184v44.821057H261.757408z" p-id="1526" fill="#ffffff"></path><path d="M489.588255 206.004148h44.821057v453.356785h-44.821057z" p-id="1527" fill="#ffffff"></path></svg>