<?xml version="1.0" standalone="no"?><!DOCTYPE svg PUBLIC "-//W3C//DTD SVG 1.1//EN" "http://www.w3.org/Graphics/SVG/1.1/DTD/svg11.dtd"><svg t="1539630800094" class="icon" style="" viewBox="0 0 1024 1024" version="1.1" xmlns="http://www.w3.org/2000/svg" p-id="15029" xmlns:xlink="http://www.w3.org/1999/xlink" width="400" height="400"><defs><style type="text/css"></style></defs><path d="M912 850.5c0 17-6 31.4-18 43.5-12 12-26.5 18-43.5 18-17.3 0-31.8-6.1-43.3-18.3L642.3 729.3C585 769 520.9 788.9 450.5 788.9c-45.8 0-89.7-8.9-131.5-26.7-41.9-17.8-77.9-41.9-108.2-72.1-30.3-30.3-54.3-66.3-72.1-108.2S112 496.3 112 450.5s8.9-89.7 26.7-131.5c17.8-41.9 41.9-77.9 72.1-108.2s66.3-54.3 108.2-72.1S404.7 112 450.5 112s89.7 8.9 131.5 26.7c41.9 17.8 77.9 41.9 108.2 72.1 30.3 30.3 54.3 66.3 72.1 108.2S789 404.7 789 450.5c0 70.5-19.9 134.5-59.7 191.8l165 164.9c11.9 11.9 17.7 26.3 17.7 43.3zM602.7 602.7c42.2-42.2 63.2-92.8 63.2-152.2 0-59.3-21-110-63.2-152.2s-92.8-63.2-152.2-63.2c-59.3 0-110 21-152.2 63.2s-63.2 92.8-63.2 152.2c0 59.3 21 110 63.2 152.2s92.8 63.2 152.2 63.2 110.1-21.2 152.2-63.2z m1.7-167.6v30.7c0 4.1-1.5 7.8-4.6 10.8s-6.7 4.6-10.8 4.6H481.3v107.7c0 4.1-1.5 7.8-4.6 10.8s-6.7 4.6-10.8 4.6h-30.7c-4.1 0-7.8-1.5-10.8-4.6s-4.6-6.7-4.6-10.8V481.2H312c-4.1 0-7.8-1.5-10.8-4.6s-4.6-6.7-4.6-10.8v-30.7c0-4.1 1.5-7.8 4.6-10.8s6.7-4.6 10.8-4.6h107.7V311.9c0-4.1 1.5-7.8 4.6-10.8s6.7-4.6 10.8-4.6h30.7c4.1 0 7.8 1.5 10.8 4.6s4.6 6.7 4.6 10.8v107.7h107.7c4.1 0 7.8 1.5 10.8 4.6 3.2 3.1 4.7 6.6 4.7 10.9z" p-id="15030" fill="#ffffff"></path></svg>