<?xml version="1.0" standalone="no"?><!DOCTYPE svg PUBLIC "-//W3C//DTD SVG 1.1//EN" "http://www.w3.org/Graphics/SVG/1.1/DTD/svg11.dtd"><svg t="1539631012703" class="icon" style="" viewBox="0 0 1024 1024" version="1.1" xmlns="http://www.w3.org/2000/svg" p-id="16333" xmlns:xlink="http://www.w3.org/1999/xlink" width="400" height="400"><defs><style type="text/css"></style></defs><path d="M236.7 105.1c-72 0-130.5 58.5-130.5 130.5 0 60.8 41.6 111.9 97.9 126.4v522.5c0 17.9 14.7 32.6 32.6 32.6 17.9 0 32.6-14.7 32.6-32.6V362.1c56.3-14.5 97.9-65.6 97.9-126.4 0-72.1-58.4-130.6-130.5-130.6z m32.6 187c-9.6 5.5-20.8 8.8-32.6 8.8-11.9 0-23-3.2-32.6-8.8-19.5-11.3-32.6-32.4-32.6-56.5s13.1-45.1 32.6-56.5c9.6-5.5 20.8-8.8 32.6-8.8 11.9 0 23 3.2 32.6 8.8 19.5 11.3 32.6 32.4 32.6 56.5 0.1 24.1-13.1 45.2-32.6 56.5z m275.6 93.5v-247c0-17.9-14.7-32.6-32.6-32.6-17.9 0-32.6 14.7-32.6 32.6v247c-56.3 14.5-97.9 65.6-97.9 126.4 0 60.8 41.6 111.9 97.9 126.4v247c0 17.9 14.7 32.6 32.6 32.6 17.9 0 32.6-14.7 32.6-32.6v-247c56.3-14.5 97.9-65.6 97.9-126.4-0.1-60.8-41.7-111.9-97.9-126.4z m0 182.9c-9.6 5.5-20.8 8.8-32.6 8.8-11.9 0-23-3.2-32.6-8.8-19.5-11.3-32.6-32.4-32.6-56.5s13.1-45.1 32.6-56.5c9.6-5.5 20.8-8.8 32.6-8.8 11.9 0 23 3.2 32.6 8.8 19.5 11.3 32.6 32.4 32.6 56.5 0 24.2-13.2 45.2-32.6 56.5z m275.5 91.7V137.8c0-17.9-14.7-32.6-32.6-32.6-17.9 0-32.6 14.7-32.6 32.6v522.5c-56.3 14.5-97.9 65.6-97.9 126.4 0 72 58.5 130.5 130.5 130.5s130.5-58.5 130.5-130.5c0-60.9-41.7-112-97.9-126.5z m0 182.9c-9.6 5.5-20.8 8.8-32.6 8.8-11.9 0-23-3.2-32.6-8.8-19.5-11.3-32.6-32.4-32.6-56.5s13.1-45.1 32.6-56.5c9.6-5.5 20.8-8.8 32.6-8.8 11.9 0 23 3.2 32.6 8.8 19.5 11.3 32.6 32.4 32.6 56.5 0 24.2-13.1 45.2-32.6 56.5z m0 0" p-id="16334" fill="#ffffff"></path></svg>