<?xml version="1.0" standalone="no"?><!DOCTYPE svg PUBLIC "-//W3C//DTD SVG 1.1//EN" "http://www.w3.org/Graphics/SVG/1.1/DTD/svg11.dtd"><svg t="1539630948126" class="icon" style="" viewBox="0 0 1024 1024" version="1.1" xmlns="http://www.w3.org/2000/svg" p-id="16151" xmlns:xlink="http://www.w3.org/1999/xlink" width="400" height="400"><defs><style type="text/css"></style></defs><path d="M191.920566 766.340709l638.536928 0 0 63.853283-638.536928 0 0-63.853283Z" p-id="16152" fill="#ffffff"></path><path d="M894.310777 319.364655 766.60421 319.364655l0 63.853283 127.70759 0 0 510.829338L128.066259 894.047276 128.066259 383.217938l127.70759 0 0-63.853283L128.066259 319.364655c-35.262108 0-63.853283 28.560476-63.853283 63.853283l0 510.829338c0 35.231409 28.591175 63.853283 63.853283 63.853283l766.244518 0c35.262108 0 63.853283-28.622898 63.853283-63.853283L958.164061 383.217938C958.165084 347.925131 929.572886 319.364655 894.310777 319.364655z" p-id="16153" fill="#ffffff"></path><path d="M638.89662 638.633119 702.749904 638.633119 702.749904 255.511371 830.457494 255.511371 830.457494 191.657065 766.60421 191.657065 766.60421 127.803781 702.749904 127.803781 702.749904 63.949474 638.89662 63.949474 638.89662 127.803781 575.042313 127.803781 575.042313 191.657065 511.18903 191.657065 511.18903 255.511371 638.89662 255.511371Z" p-id="16154" fill="#ffffff"></path><path d="M191.920566 510.925528 255.773849 510.925528 255.773849 574.779835 319.628156 574.779835 319.628156 638.633119 383.48144 638.633119 383.48144 574.779835 447.334723 574.779835 447.334723 510.925528 511.18903 510.925528 511.18903 447.072245 383.48144 447.072245 383.48144 63.949474 319.628156 63.949474 319.628156 447.072245 191.920566 447.072245Z" p-id="16155" fill="#ffffff"></path></svg>