<?xml version="1.0" standalone="no"?><!DOCTYPE svg PUBLIC "-//W3C//DTD SVG 1.1//EN" "http://www.w3.org/Graphics/SVG/1.1/DTD/svg11.dtd"><svg t="1539627377042" class="icon" style="" viewBox="0 0 1024 1024" version="1.1" xmlns="http://www.w3.org/2000/svg" p-id="10329" xmlns:xlink="http://www.w3.org/1999/xlink" width="400" height="400"><defs><style type="text/css"></style></defs><path d="M325 547h3c13.3 0 24-10.7 24-24s-10.7-24-24-24v-0.5c-82.8-6.6-148-75.9-148-160.5s65.2-153.9 148-160.5v-0.5c13.3 0 24-10.7 24-24s-10.7-24-24-24v-0.2c-109.5 6.8-196.3 97.8-196.3 209.1 0 74.7 39.1 140.2 97.9 177.3C116.3 554.8 35 662.5 35 789.3c0 11.1 0.6 22 1.8 32.7h0.2c0.5 12.8 11.1 23 24 23s23.4-10.2 24-23h0.3c-0.1-0.7-0.2-1.5-0.3-2.2-0.1-1.1-0.2-2.3-0.4-3.4-1-9-1.6-18.2-1.6-27.5C83 655.3 191.3 547 325 547zM599.2 80c-133.5 0-241.8 108.3-241.8 241.8 0 91 50.2 170.2 124.4 211.4C325.9 583 213 729.1 213 901.5v0.5c0 13.3 10.7 24 24 24s24-10.7 24-24c0-1.3-0.1-2.5-0.3-3.7 2.1-185.2 152.8-334.7 338.4-334.7 3.2 0 6.3 0.1 9.5 0.1l0.3-0.4c129-5.1 232-111.3 232-241.6C840.9 188.3 732.7 80 599.2 80z m0 435.2c-106.8 0-193.4-86.6-193.4-193.4s86.6-193.4 193.4-193.4S792.6 215 792.6 321.8 706 515.2 599.2 515.2zM986 901.5c0-105.5-42.3-201.1-110.8-270.9l-0.3 0.3c-4.3-4.3-10.3-6.9-16.9-6.9-13.3 0-24 10.7-24 24 0 7.3 3.2 13.8 8.3 18.2l-0.2 0.3c59.1 61 95.6 144.1 95.6 235.7h0.4c0.1 13.2 10.8 23.9 24 23.9 13.3 0 24-10.7 24-24v-0.1c-0.1-0.2-0.1-0.4-0.1-0.5z" p-id="10330" fill="#ffffff"></path></svg>